<svg width="43" height="41" viewBox="0 0 43 41" fill="none" xmlns="http://www.w3.org/2000/svg">
<path id="Star 1" d="M17.7493 2.6227C19.1069 -0.758029 23.8928 -0.758027 25.2504 2.6227L27.999 9.46721C28.5771 10.9069 29.9283 11.8885 31.4761 11.9935L38.835 12.4925C42.4698 12.7389 43.9487 17.2906 41.153 19.6264L35.4928 24.3556C34.3023 25.3503 33.7862 26.9387 34.1647 28.4432L35.9641 35.5961C36.853 39.1291 32.9811 41.9422 29.8956 40.0051L23.6489 36.0833C22.335 35.2584 20.6648 35.2584 19.3509 36.0833L13.1042 40.0051C10.0187 41.9422 6.14682 39.1291 7.03564 35.5961L8.83511 28.4432C9.2136 26.9386 8.6975 25.3503 7.50696 24.3556L1.8468 19.6264C-0.948941 17.2906 0.529986 12.7389 4.16477 12.4925L11.5236 11.9935C13.0715 11.8885 14.4226 10.9069 15.0008 9.46721L17.7493 2.6227Z" fill="#FCF7F8"/>
</svg>
