<svg width="30" height="59" viewBox="0 0 30 59" fill="none" xmlns="http://www.w3.org/2000/svg">
<g id="Mask group">
<mask id="mask0_65_1795" style="mask-type:alpha" maskUnits="userSpaceOnUse" x="0" y="0" width="30" height="59">
<rect id="Rectangle 22" x="0.374756" y="0.575195" width="28.7855" height="57.5711" rx="4.04167" fill="white"/>
</mask>
<g mask="url(#mask0_65_1795)">
<path id="Star 1" d="M25.4097 13.513C26.7673 10.1323 31.5532 10.1323 32.9108 13.513L35.6594 20.3575C36.2375 21.7972 37.5887 22.7789 39.1365 22.8838L46.4954 23.3828C50.1302 23.6292 51.6091 28.1809 48.8134 30.5168L43.1532 35.2459C41.9627 36.2406 41.4466 37.829 41.8251 39.3335L43.6245 46.4864C44.5134 50.0194 40.6415 52.8325 37.556 50.8954L31.3093 46.9737C29.9954 46.1488 28.3252 46.1488 27.0113 46.9737L20.7646 50.8954C17.6791 52.8325 13.8072 50.0194 14.696 46.4864L16.4955 39.3335C16.874 37.829 16.3579 36.2406 15.1674 35.2459L9.5072 30.5168C6.71146 28.1809 8.19039 23.6292 11.8252 23.3828L19.184 22.8838C20.7319 22.7789 22.083 21.7972 22.6612 20.3575L25.4097 13.513Z" fill="#FCF7F8"/>
</g>
</g>
</svg>
