<svg width="47" height="46" viewBox="0 0 47 46" fill="none" xmlns="http://www.w3.org/2000/svg">
<path id="Star 1" d="M20.0709 5.51302C21.4285 2.13229 26.2144 2.13229 27.572 5.51302L30.3205 12.3575C30.8987 13.7972 32.2498 14.7789 33.7977 14.8838L41.1565 15.3828C44.7913 15.6292 46.2702 20.1809 43.4745 22.5168L37.8143 27.2459C36.6238 28.2406 36.1077 29.829 36.4862 31.3335L38.2857 38.4864C39.1745 42.0194 35.3026 44.8325 32.2171 42.8954L25.9704 38.9737C24.6565 38.1488 22.9864 38.1488 21.6724 38.9737L15.4257 42.8954C12.3402 44.8325 8.46836 42.0194 9.35717 38.4864L11.1566 31.3335C11.5351 29.829 11.019 28.2406 9.82849 27.2459L4.16833 22.5168C1.37259 20.1809 2.85152 15.6292 6.48631 15.3828L13.8452 14.8838C15.393 14.7789 16.7442 13.7972 17.3223 12.3575L20.0709 5.51302Z" stroke="#FCF7F8" stroke-width="4.04167"/>
</svg>
